<svg width="260" height="41" viewBox="0 0 260 41" fill="none" xmlns="http://www.w3.org/2000/svg">
<rect x="0.5" y="0.859985" width="259" height="40" rx="6" fill="#1877F2"/>
<g clip-path="url(#clip0_6314_8062)">
<path d="M23.6602 21.852L24.1082 18.956H21.3242V17.084C21.3242 16.636 21.4415 16.2787 21.6762 16.012C21.9642 15.6813 22.3908 15.516 22.9562 15.516H24.2202V13.052L23.5162 12.956C22.9508 12.892 22.4388 12.86 21.9802 12.86C21.2122 12.86 20.5455 13.012 19.9802 13.316C19.4148 13.62 18.9775 14.0653 18.6682 14.652C18.3588 15.2387 18.2042 15.9427 18.2042 16.764V18.956H15.6602V21.852H18.2042V28.86H21.3242V21.852H23.6602Z" fill="white"/>
</g>
<path d="M46.7443 18.8145V20.1782H42.7045V18.8145H46.7443ZM43.6293 25.36V18.3415C43.6293 17.8671 43.7216 17.4736 43.9062 17.1611C44.0938 16.8486 44.3494 16.6142 44.6733 16.458C44.9972 16.3017 45.3651 16.2236 45.777 16.2236C46.0554 16.2236 46.3097 16.2449 46.5398 16.2875C46.7727 16.3302 46.946 16.3685 47.0597 16.4026L46.7358 17.7662C46.6648 17.7435 46.5767 17.7222 46.4716 17.7023C46.3693 17.6824 46.2642 17.6725 46.1562 17.6725C45.8892 17.6725 45.7031 17.735 45.598 17.86C45.4929 17.9821 45.4403 18.154 45.4403 18.3756V25.36H43.6293ZM49.1654 25.4836C48.7478 25.4836 48.3757 25.4111 48.049 25.2662C47.7223 25.1185 47.4637 24.9012 47.2734 24.6142C47.0859 24.3245 46.9921 23.9637 46.9921 23.5319C46.9921 23.1682 47.0589 22.8628 47.1924 22.6157C47.326 22.3685 47.5078 22.1696 47.7379 22.0191C47.968 21.8685 48.2294 21.7549 48.522 21.6782C48.8174 21.6015 49.1271 21.5475 49.451 21.5162C49.8316 21.4765 50.1385 21.4395 50.3714 21.4054C50.6044 21.3685 50.7734 21.3145 50.8785 21.2435C50.9836 21.1725 51.0362 21.0674 51.0362 20.9282V20.9026C51.0362 20.6327 50.951 20.4239 50.7805 20.2762C50.6129 20.1285 50.3742 20.0546 50.0646 20.0546C49.7379 20.0546 49.4779 20.127 49.2848 20.2719C49.0916 20.414 48.9637 20.5929 48.9012 20.8088L47.2223 20.6725C47.3075 20.2748 47.4751 19.931 47.7251 19.6412C47.9751 19.3486 48.2975 19.1242 48.6924 18.9679C49.0902 18.8088 49.5504 18.7293 50.0731 18.7293C50.4367 18.7293 50.7848 18.7719 51.1171 18.8571C51.4524 18.9424 51.7492 19.0745 52.0078 19.2535C52.2691 19.4324 52.4751 19.6625 52.6257 19.9438C52.7762 20.2222 52.8515 20.556 52.8515 20.9452V25.36H51.1299V24.4523H51.0788C50.9737 24.6569 50.8331 24.8373 50.6569 24.9935C50.4808 25.1469 50.2691 25.2677 50.022 25.3557C49.7748 25.441 49.4893 25.4836 49.1654 25.4836ZM49.6853 24.2307C49.9524 24.2307 50.1882 24.1782 50.3927 24.0731C50.5973 23.9651 50.7578 23.8202 50.8742 23.6384C50.9907 23.4566 51.049 23.2506 51.049 23.0205V22.3259C50.9921 22.3628 50.914 22.3969 50.8146 22.4282C50.718 22.4566 50.6086 22.4836 50.4865 22.5091C50.3643 22.5319 50.2421 22.5532 50.12 22.5731C49.9978 22.5901 49.887 22.6057 49.7876 22.6199C49.5745 22.6512 49.3885 22.7009 49.2294 22.7691C49.0703 22.8373 48.9467 22.9296 48.8586 23.0461C48.7706 23.1597 48.7265 23.3017 48.7265 23.4722C48.7265 23.7194 48.816 23.9083 48.995 24.039C49.1768 24.1668 49.4069 24.2307 49.6853 24.2307ZM56.8973 25.4878C56.2268 25.4878 55.6501 25.3458 55.1672 25.0617C54.6871 24.7748 54.3177 24.377 54.0592 23.8685C53.8035 23.36 53.6757 22.7748 53.6757 22.1128C53.6757 21.4424 53.805 20.8543 54.0635 20.3486C54.3248 19.8401 54.6956 19.4438 55.1757 19.1597C55.6558 18.8728 56.2268 18.7293 56.8888 18.7293C57.4598 18.7293 57.9598 18.833 58.3888 19.0404C58.8177 19.2478 59.1572 19.539 59.4072 19.914C59.6572 20.289 59.795 20.7293 59.8206 21.235H58.1075C58.0592 20.9083 57.9314 20.6455 57.724 20.4466C57.5194 20.2449 57.251 20.1441 56.9186 20.1441C56.6373 20.1441 56.3916 20.2208 56.1814 20.3742C55.974 20.5248 55.8121 20.7449 55.6956 21.0347C55.5791 21.3245 55.5209 21.6753 55.5209 22.0873C55.5209 22.5049 55.5777 22.86 55.6913 23.1526C55.8078 23.4452 55.9712 23.6682 56.1814 23.8216C56.3916 23.975 56.6373 24.0517 56.9186 24.0517C57.126 24.0517 57.3121 24.0091 57.4768 23.9239C57.6444 23.8387 57.7822 23.7151 57.8902 23.5532C58.001 23.3884 58.0734 23.191 58.1075 22.9608H59.8206C59.7922 23.4608 59.6558 23.9012 59.4115 24.2819C59.17 24.6597 58.8362 24.9552 58.4101 25.1682C57.9839 25.3813 57.4797 25.4878 56.8973 25.4878ZM63.6458 25.4878C62.9725 25.4878 62.393 25.3515 61.9072 25.0787C61.4242 24.8032 61.0521 24.414 60.7907 23.9111C60.5293 23.4054 60.3987 22.8074 60.3987 22.1171C60.3987 21.4438 60.5293 20.8529 60.7907 20.3444C61.0521 19.8358 61.42 19.4395 61.8944 19.1554C62.3717 18.8713 62.9313 18.7293 63.5734 18.7293C64.0052 18.7293 64.4072 18.7989 64.7793 18.9381C65.1543 19.0745 65.4811 19.2804 65.7595 19.556C66.0407 19.8316 66.2595 20.1782 66.4157 20.5958C66.572 21.0106 66.6501 21.4963 66.6501 22.0532V22.5517H61.1231V21.4267H64.9413C64.9413 21.1654 64.8845 20.9338 64.7708 20.7321C64.6572 20.5304 64.4995 20.3728 64.2978 20.2591C64.0989 20.1427 63.8674 20.0844 63.6032 20.0844C63.3276 20.0844 63.0833 20.1483 62.8703 20.2762C62.66 20.4012 62.4953 20.5702 62.3759 20.7833C62.2566 20.9935 62.1955 21.2279 62.1927 21.4864V22.556C62.1927 22.8799 62.2524 23.1597 62.3717 23.3955C62.4938 23.6313 62.6657 23.8131 62.8873 23.941C63.1089 24.0688 63.3717 24.1327 63.6757 24.1327C63.8774 24.1327 64.062 24.1043 64.2296 24.0475C64.3972 23.9907 64.5407 23.9054 64.66 23.7918C64.7793 23.6782 64.8703 23.539 64.9328 23.3742L66.6117 23.485C66.5265 23.8884 66.3518 24.2407 66.0876 24.5418C65.8262 24.8401 65.4882 25.0731 65.0734 25.2407C64.6614 25.4054 64.1856 25.4878 63.6458 25.4878ZM67.5488 25.36V16.6327H69.3642V19.914H69.4196C69.4991 19.7378 69.6142 19.5588 69.7647 19.377C69.9182 19.1924 70.117 19.039 70.3613 18.9168C70.6085 18.7918 70.9153 18.7293 71.2818 18.7293C71.7591 18.7293 72.1994 18.8543 72.6028 19.1043C73.0062 19.3515 73.3287 19.725 73.5701 20.225C73.8116 20.7222 73.9324 21.3458 73.9324 22.0958C73.9324 22.8259 73.8145 23.4424 73.5787 23.9452C73.3457 24.4452 73.0275 24.8245 72.6241 25.083C72.2236 25.3387 71.7747 25.4665 71.2775 25.4665C70.9253 25.4665 70.6255 25.4083 70.3784 25.2918C70.1341 25.1753 69.9338 25.029 69.7775 24.8529C69.6213 24.6739 69.502 24.4935 69.4196 24.3117H69.3386V25.36H67.5488ZM69.3258 22.0873C69.3258 22.4765 69.3798 22.816 69.4878 23.1057C69.5957 23.3955 69.752 23.6213 69.9565 23.7833C70.1611 23.9424 70.4096 24.0219 70.7022 24.0219C70.9977 24.0219 71.2477 23.941 71.4522 23.779C71.6568 23.6142 71.8116 23.387 71.9167 23.0972C72.0247 22.8046 72.0787 22.4679 72.0787 22.0873C72.0787 21.7094 72.0261 21.377 71.921 21.0901C71.8159 20.8032 71.6611 20.5787 71.4565 20.4168C71.252 20.2549 71.0005 20.1739 70.7022 20.1739C70.4068 20.1739 70.1568 20.252 69.9522 20.4083C69.7505 20.5645 69.5957 20.7861 69.4878 21.0731C69.3798 21.36 69.3258 21.6981 69.3258 22.0873ZM77.781 25.4878C77.1191 25.4878 76.5467 25.3472 76.0637 25.066C75.5836 24.7819 75.2129 24.387 74.9515 23.8813C74.6901 23.3728 74.5594 22.7833 74.5594 22.1128C74.5594 21.4367 74.6901 20.8458 74.9515 20.3401C75.2129 19.8316 75.5836 19.4367 76.0637 19.1554C76.5467 18.8713 77.1191 18.7293 77.781 18.7293C78.443 18.7293 79.014 18.8713 79.4941 19.1554C79.9771 19.4367 80.3492 19.8316 80.6106 20.3401C80.8719 20.8458 81.0026 21.4367 81.0026 22.1128C81.0026 22.7833 80.8719 23.3728 80.6106 23.8813C80.3492 24.387 79.9771 24.7819 79.4941 25.066C79.014 25.3472 78.443 25.4878 77.781 25.4878ZM77.7896 24.0816C78.0907 24.0816 78.3421 23.9963 78.5438 23.8259C78.7455 23.6526 78.8975 23.4168 78.9998 23.1185C79.1049 22.8202 79.1575 22.4807 79.1575 22.1C79.1575 21.7194 79.1049 21.3799 78.9998 21.0816C78.8975 20.7833 78.7455 20.5475 78.5438 20.3742C78.3421 20.2009 78.0907 20.1142 77.7896 20.1142C77.4856 20.1142 77.2299 20.2009 77.0225 20.3742C76.818 20.5475 76.6631 20.7833 76.558 21.0816C76.4558 21.3799 76.4046 21.7194 76.4046 22.1C76.4046 22.4807 76.4558 22.8202 76.558 23.1185C76.6631 23.4168 76.818 23.6526 77.0225 23.8259C77.2299 23.9963 77.4856 24.0816 77.7896 24.0816ZM84.8204 25.4878C84.1585 25.4878 83.586 25.3472 83.1031 25.066C82.623 24.7819 82.2522 24.387 81.9909 23.8813C81.7295 23.3728 81.5988 22.7833 81.5988 22.1128C81.5988 21.4367 81.7295 20.8458 81.9909 20.3401C82.2522 19.8316 82.623 19.4367 83.1031 19.1554C83.586 18.8713 84.1585 18.7293 84.8204 18.7293C85.4823 18.7293 86.0534 18.8713 86.5335 19.1554C87.0164 19.4367 87.3886 19.8316 87.65 20.3401C87.9113 20.8458 88.042 21.4367 88.042 22.1128C88.042 22.7833 87.9113 23.3728 87.65 23.8813C87.3886 24.387 87.0164 24.7819 86.5335 25.066C86.0534 25.3472 85.4823 25.4878 84.8204 25.4878ZM84.8289 24.0816C85.1301 24.0816 85.3815 23.9963 85.5832 23.8259C85.7849 23.6526 85.9369 23.4168 86.0392 23.1185C86.1443 22.8202 86.1968 22.4807 86.1968 22.1C86.1968 21.7194 86.1443 21.3799 86.0392 21.0816C85.9369 20.7833 85.7849 20.5475 85.5832 20.3742C85.3815 20.2009 85.1301 20.1142 84.8289 20.1142C84.525 20.1142 84.2693 20.2009 84.0619 20.3742C83.8573 20.5475 83.7025 20.7833 83.5974 21.0816C83.4951 21.3799 83.444 21.7194 83.444 22.1C83.444 22.4807 83.4951 22.8202 83.5974 23.1185C83.7025 23.4168 83.8573 23.6526 84.0619 23.8259C84.2693 23.9963 84.525 24.0816 84.8289 24.0816ZM90.5473 23.4765L90.5515 21.2989H90.8158L92.9123 18.8145H94.9961L92.1794 22.1043H91.749L90.5473 23.4765ZM88.9024 25.36V16.6327H90.7177V25.36H88.9024ZM92.9933 25.36L91.0672 22.5091L92.2774 21.2265L95.1197 25.36H92.9933Z" fill="white"/>
<defs>
<clipPath id="clip0_6314_8062">
<rect width="16" height="16" fill="white" transform="matrix(1 0 0 -1 12.5 28.86)"/>
</clipPath>
</defs>
</svg>
