<svg width="260" height="41" viewBox="0 0 260 41" fill="none" xmlns="http://www.w3.org/2000/svg">
<rect x="0.5" y="0.859985" width="259" height="40" rx="6" fill="#FD1D1D"/>
<path d="M20.6682 17.26C20.0175 17.26 19.4175 17.4227 18.8682 17.748C18.3188 18.0734 17.8815 18.5107 17.5562 19.06C17.2308 19.6094 17.0682 20.2094 17.0682 20.86C17.0682 21.5107 17.2308 22.1107 17.5562 22.66C17.8815 23.2094 18.3188 23.644 18.8682 23.964C19.4175 24.284 20.0175 24.444 20.6682 24.444C21.3188 24.444 21.9188 24.284 22.4682 23.964C23.0175 23.644 23.4522 23.2094 23.7722 22.66C24.0922 22.1107 24.2522 21.5107 24.2522 20.86C24.2522 20.2094 24.0922 19.6094 23.7722 19.06C23.4522 18.5107 23.0175 18.0734 22.4682 17.748C21.9188 17.4227 21.3188 17.26 20.6682 17.26ZM20.6682 23.196C20.2415 23.196 19.8495 23.092 19.4922 22.884C19.1348 22.676 18.8522 22.3907 18.6442 22.028C18.4362 21.6654 18.3322 21.276 18.3322 20.86C18.3322 20.444 18.4362 20.0547 18.6442 19.692C18.8522 19.3294 19.1348 19.044 19.4922 18.836C19.8495 18.628 20.2415 18.524 20.6682 18.524C21.0948 18.524 21.4868 18.628 21.8442 18.836C22.2015 19.044 22.4842 19.3267 22.6922 19.684C22.9002 20.0414 23.0042 20.4334 23.0042 20.86C23.0042 21.2867 22.9002 21.6787 22.6922 22.036C22.4842 22.3934 22.1988 22.676 21.8362 22.884C21.4735 23.092 21.0842 23.196 20.6682 23.196ZM25.2442 17.116C25.2442 17.3507 25.1615 17.5507 24.9962 17.716C24.8308 17.8814 24.6308 17.964 24.3962 17.964C24.1615 17.964 23.9642 17.8814 23.8042 17.716C23.6442 17.5507 23.5642 17.3507 23.5642 17.116C23.5642 16.8814 23.6442 16.684 23.8042 16.524C23.9642 16.364 24.1615 16.284 24.3962 16.284C24.6308 16.284 24.8308 16.364 24.9962 16.524C25.1615 16.684 25.2442 16.8814 25.2442 17.116ZM27.6122 17.964C27.5908 17.356 27.5002 16.828 27.3402 16.38C27.1588 15.868 26.8735 15.42 26.4842 15.036C26.0948 14.652 25.6442 14.3694 25.1322 14.188C24.6842 14.028 24.1562 13.932 23.5482 13.9C22.9722 13.868 22.0095 13.852 20.6602 13.852C19.3108 13.852 18.3482 13.868 17.7722 13.9C17.1535 13.932 16.6255 14.028 16.1882 14.188C15.6762 14.3694 15.2282 14.652 14.8442 15.036C14.4602 15.42 14.1775 15.868 13.9962 16.38C13.8255 16.828 13.7295 17.356 13.7082 17.964C13.6762 18.54 13.6602 19.5027 13.6602 20.852C13.6602 22.2014 13.6762 23.164 13.7082 23.74C13.7295 24.348 13.8202 24.876 13.9802 25.324C14.1615 25.836 14.4495 26.2894 14.8442 26.684C15.2388 27.0787 15.6922 27.3614 16.2042 27.532C16.6308 27.692 17.1535 27.7827 17.7722 27.804C18.3482 27.8467 19.3108 27.868 20.6602 27.868C22.0095 27.868 22.9722 27.8467 23.5482 27.804C24.1562 27.7827 24.6842 27.692 25.1322 27.532C25.6442 27.3507 26.0948 27.0654 26.4842 26.676C26.8735 26.2867 27.1588 25.836 27.3402 25.324C27.5002 24.876 27.5908 24.348 27.6122 23.74C27.6442 23.164 27.6602 22.204 27.6602 20.86C27.6602 19.516 27.6442 18.5507 27.6122 17.964ZM26.1242 24.988C26.0068 25.2867 25.8335 25.5534 25.6042 25.788C25.3748 26.0227 25.1055 26.1987 24.7962 26.316C24.4442 26.4547 23.8735 26.5454 23.0842 26.588C22.6362 26.6094 21.9908 26.6147 21.1482 26.604H20.1882C19.3455 26.6147 18.7002 26.6094 18.2522 26.588C17.4522 26.5454 16.8815 26.4547 16.5402 26.316C16.2308 26.1987 15.9615 26.0254 15.7322 25.796C15.5028 25.5667 15.3295 25.2974 15.2122 24.988C15.0735 24.636 14.9828 24.0654 14.9402 23.276C14.9188 22.828 14.9135 22.1827 14.9242 21.34V20.38C14.9135 19.5374 14.9188 18.892 14.9402 18.444C14.9828 17.644 15.0735 17.0734 15.2122 16.732C15.3295 16.4227 15.5028 16.1534 15.7322 15.924C15.9615 15.6947 16.2308 15.5214 16.5402 15.404C16.8815 15.2654 17.4468 15.1747 18.2362 15.132C18.6842 15.1107 19.3348 15.1054 20.1882 15.116H21.1482C21.9908 15.1054 22.6362 15.1107 23.0842 15.132C23.8735 15.1747 24.4442 15.2654 24.7962 15.404C25.1055 15.5214 25.3748 15.6947 25.6042 15.924C25.8335 16.1534 26.0068 16.4227 26.1242 16.732C26.2628 17.0734 26.3535 17.6387 26.3962 18.428C26.4175 18.876 26.4228 19.5267 26.4122 20.38V21.34C26.4228 22.1827 26.4175 22.828 26.3962 23.276C26.3535 24.0654 26.2628 24.636 26.1242 24.988Z" fill="white"/>
<path d="M43.2244 25.36V18.8145H45.0398V25.36H43.2244ZM44.1364 17.9708C43.8665 17.9708 43.6349 17.8813 43.4418 17.7023C43.2514 17.5205 43.1562 17.3032 43.1562 17.0503C43.1562 16.8003 43.2514 16.5858 43.4418 16.4069C43.6349 16.225 43.8665 16.1341 44.1364 16.1341C44.4063 16.1341 44.6364 16.225 44.8267 16.4069C45.0199 16.5858 45.1165 16.8003 45.1165 17.0503C45.1165 17.3032 45.0199 17.5205 44.8267 17.7023C44.6364 17.8813 44.4063 17.9708 44.1364 17.9708ZM47.9893 21.5759V25.36H46.174V18.8145H47.9041V19.9694H47.9808C48.1257 19.5887 48.3686 19.2875 48.7095 19.066C49.0504 18.8415 49.4637 18.7293 49.9495 18.7293C50.4041 18.7293 50.8004 18.8287 51.1385 19.0276C51.4765 19.2265 51.7393 19.5106 51.9268 19.8799C52.1143 20.2463 52.2081 20.6838 52.2081 21.1924V25.36H50.3927V21.5162C50.3956 21.1157 50.2933 20.8032 50.0859 20.5787C49.8785 20.3515 49.593 20.2378 49.2294 20.2378C48.985 20.2378 48.7691 20.2904 48.5816 20.3955C48.397 20.5006 48.2521 20.654 48.147 20.8557C48.0447 21.0546 47.9921 21.2946 47.9893 21.5759ZM58.7648 20.681L57.1029 20.7833C57.0745 20.6412 57.0134 20.5134 56.9197 20.3998C56.8259 20.2833 56.7023 20.191 56.5489 20.1228C56.3984 20.0517 56.218 20.0162 56.0077 20.0162C55.7265 20.0162 55.4893 20.0759 55.2961 20.1952C55.1029 20.3117 55.0063 20.4679 55.0063 20.664C55.0063 20.8202 55.0688 20.9523 55.1938 21.0603C55.3188 21.1682 55.5333 21.2549 55.8373 21.3202L57.0219 21.5588C57.6583 21.6895 58.1327 21.8998 58.4452 22.1895C58.7577 22.4793 58.914 22.86 58.914 23.3316C58.914 23.7606 58.7876 24.137 58.5347 24.4608C58.2847 24.7847 57.941 25.0375 57.5035 25.2194C57.0688 25.3983 56.5674 25.4878 55.9992 25.4878C55.1327 25.4878 54.4424 25.3074 53.9282 24.9466C53.4168 24.583 53.1171 24.0887 53.029 23.4637L54.8145 23.3699C54.8685 23.6341 54.9992 23.8358 55.2066 23.975C55.414 24.1114 55.6796 24.1796 56.0035 24.1796C56.3216 24.1796 56.5773 24.1185 56.7705 23.9963C56.9665 23.8713 57.066 23.7108 57.0688 23.5148C57.066 23.35 56.9964 23.2151 56.86 23.11C56.7236 23.002 56.5134 22.9196 56.2293 22.8628L55.0958 22.637C54.4566 22.5091 53.9807 22.2875 53.6682 21.9722C53.3586 21.6569 53.2037 21.2549 53.2037 20.7662C53.2037 20.3458 53.3174 19.9836 53.5447 19.6796C53.7748 19.3756 54.0972 19.1412 54.512 18.9765C54.9296 18.8117 55.4182 18.7293 55.9779 18.7293C56.8046 18.7293 57.4552 18.904 57.9296 19.2535C58.4069 19.6029 58.6853 20.0787 58.7648 20.681ZM63.2186 18.8145V20.1782H59.2769V18.8145H63.2186ZM60.1717 17.2463H61.9871V23.3486C61.9871 23.5162 62.0127 23.6469 62.0638 23.7407C62.1149 23.8316 62.186 23.8955 62.2769 23.9324C62.3706 23.9694 62.4786 23.9878 62.6007 23.9878C62.686 23.9878 62.7712 23.9807 62.8564 23.9665C62.9416 23.9495 63.007 23.9367 63.0524 23.9282L63.3379 25.279C63.247 25.3074 63.1192 25.3401 62.9544 25.377C62.7896 25.4168 62.5894 25.441 62.3536 25.4495C61.9161 25.4665 61.5325 25.4083 61.203 25.2748C60.8763 25.1412 60.622 24.9338 60.4402 24.6526C60.2584 24.3713 60.1689 24.0162 60.1717 23.5873V17.2463ZM65.9476 25.4836C65.53 25.4836 65.1579 25.4111 64.8311 25.2662C64.5044 25.1185 64.2459 24.9012 64.0556 24.6142C63.8681 24.3245 63.7743 23.9637 63.7743 23.5319C63.7743 23.1682 63.8411 22.8628 63.9746 22.6157C64.1081 22.3685 64.29 22.1696 64.5201 22.0191C64.7502 21.8685 65.0115 21.7549 65.3042 21.6782C65.5996 21.6015 65.9093 21.5475 66.2331 21.5162C66.6138 21.4765 66.9206 21.4395 67.1536 21.4054C67.3865 21.3685 67.5556 21.3145 67.6607 21.2435C67.7658 21.1725 67.8184 21.0674 67.8184 20.9282V20.9026C67.8184 20.6327 67.7331 20.4239 67.5627 20.2762C67.3951 20.1285 67.1564 20.0546 66.8468 20.0546C66.5201 20.0546 66.2601 20.127 66.0669 20.2719C65.8738 20.414 65.7459 20.5929 65.6834 20.8088L64.0044 20.6725C64.0897 20.2748 64.2573 19.931 64.5073 19.6412C64.7573 19.3486 65.0797 19.1242 65.4746 18.9679C65.8723 18.8088 66.3326 18.7293 66.8553 18.7293C67.2189 18.7293 67.5669 18.7719 67.8993 18.8571C68.2346 18.9424 68.5314 19.0745 68.79 19.2535C69.0513 19.4324 69.2573 19.6625 69.4079 19.9438C69.5584 20.2222 69.6337 20.556 69.6337 20.9452V25.36H67.9121V24.4523H67.861C67.7559 24.6569 67.6152 24.8373 67.4391 24.9935C67.263 25.1469 67.0513 25.2677 66.8042 25.3557C66.557 25.441 66.2715 25.4836 65.9476 25.4836ZM66.4675 24.2307C66.7346 24.2307 66.9704 24.1782 67.1749 24.0731C67.3794 23.9651 67.54 23.8202 67.6564 23.6384C67.7729 23.4566 67.8312 23.2506 67.8312 23.0205V22.3259C67.7743 22.3628 67.6962 22.3969 67.5968 22.4282C67.5002 22.4566 67.3908 22.4836 67.2687 22.5091C67.1465 22.5319 67.0243 22.5532 66.9022 22.5731C66.78 22.5901 66.6692 22.6057 66.5698 22.6199C66.3567 22.6512 66.1706 22.7009 66.0115 22.7691C65.8525 22.8373 65.7289 22.9296 65.6408 23.0461C65.5527 23.1597 65.5087 23.3017 65.5087 23.4722C65.5087 23.7194 65.5982 23.9083 65.7772 24.039C65.959 24.1668 66.1891 24.2307 66.4675 24.2307ZM73.671 27.9509C73.0829 27.9509 72.5786 27.8699 72.1582 27.708C71.7406 27.5489 71.4082 27.3316 71.161 27.056C70.9138 26.7804 70.7533 26.4708 70.6795 26.127L72.3585 25.9012C72.4096 26.0319 72.4906 26.154 72.6013 26.2677C72.7121 26.3813 72.8585 26.4722 73.0403 26.5404C73.2249 26.6114 73.4494 26.6469 73.7136 26.6469C74.1085 26.6469 74.4337 26.5503 74.6894 26.3571C74.9479 26.1668 75.0772 25.8472 75.0772 25.3983V24.2009H75.0005C74.921 24.3827 74.8016 24.5546 74.6425 24.7165C74.4835 24.8785 74.2789 25.0106 74.0289 25.1128C73.7789 25.2151 73.4806 25.2662 73.134 25.2662C72.6425 25.2662 72.1951 25.1526 71.7917 24.9253C71.3911 24.6952 71.0715 24.3444 70.8329 23.8728C70.5971 23.3983 70.4792 22.7989 70.4792 22.0745C70.4792 21.333 70.5999 20.7137 70.8414 20.2165C71.0829 19.7194 71.4039 19.3472 71.8045 19.1C72.2079 18.8529 72.6496 18.7293 73.1298 18.7293C73.4962 18.7293 73.8031 18.7918 74.0502 18.9168C74.2974 19.039 74.4962 19.1924 74.6468 19.377C74.8002 19.5588 74.9181 19.7378 75.0005 19.914H75.0687V18.8145H76.8712V25.4239C76.8712 25.9807 76.7349 26.4466 76.4621 26.8216C76.1894 27.1966 75.8116 27.4779 75.3286 27.6654C74.8485 27.8557 74.296 27.9509 73.671 27.9509ZM73.7093 23.9026C74.0019 23.9026 74.2491 23.8302 74.4508 23.6853C74.6553 23.5375 74.8116 23.3273 74.9195 23.0546C75.0303 22.779 75.0857 22.4495 75.0857 22.066C75.0857 21.6824 75.0317 21.35 74.9238 21.0688C74.8158 20.7847 74.6596 20.5645 74.455 20.4083C74.2505 20.252 74.0019 20.1739 73.7093 20.1739C73.411 20.1739 73.1596 20.2549 72.955 20.4168C72.7505 20.5759 72.5957 20.7975 72.4906 21.0816C72.3854 21.3657 72.3329 21.6938 72.3329 22.066C72.3329 22.4438 72.3854 22.7705 72.4906 23.0461C72.5985 23.3188 72.7533 23.5304 72.955 23.681C73.1596 23.8287 73.411 23.9026 73.7093 23.9026ZM77.9958 25.36V18.8145H79.7558V19.9566H79.824C79.9433 19.5503 80.1436 19.2435 80.4248 19.0361C80.7061 18.8259 81.0299 18.7208 81.3964 18.7208C81.4873 18.7208 81.5853 18.7265 81.6904 18.7378C81.7956 18.7492 81.8879 18.7648 81.9674 18.7847V20.3955C81.8822 20.3699 81.7643 20.3472 81.6137 20.3273C81.4632 20.3074 81.3254 20.2975 81.2004 20.2975C80.9333 20.2975 80.6947 20.3557 80.4845 20.4722C80.2771 20.5858 80.1123 20.7449 79.9902 20.9495C79.8708 21.154 79.8112 21.3898 79.8112 21.6569V25.36H77.9958ZM84.265 25.4836C83.8474 25.4836 83.4752 25.4111 83.1485 25.2662C82.8218 25.1185 82.5633 24.9012 82.3729 24.6142C82.1854 24.3245 82.0917 23.9637 82.0917 23.5319C82.0917 23.1682 82.1584 22.8628 82.292 22.6157C82.4255 22.3685 82.6073 22.1696 82.8374 22.0191C83.0675 21.8685 83.3289 21.7549 83.6215 21.6782C83.917 21.6015 84.2266 21.5475 84.5505 21.5162C84.9312 21.4765 85.238 21.4395 85.4709 21.4054C85.7039 21.3685 85.8729 21.3145 85.978 21.2435C86.0832 21.1725 86.1357 21.0674 86.1357 20.9282V20.9026C86.1357 20.6327 86.0505 20.4239 85.88 20.2762C85.7124 20.1285 85.4738 20.0546 85.1641 20.0546C84.8374 20.0546 84.5775 20.127 84.3843 20.2719C84.1911 20.414 84.0633 20.5929 84.0008 20.8088L82.3218 20.6725C82.407 20.2748 82.5746 19.931 82.8246 19.6412C83.0746 19.3486 83.3971 19.1242 83.792 18.9679C84.1897 18.8088 84.6499 18.7293 85.1726 18.7293C85.5363 18.7293 85.8843 18.7719 86.2167 18.8571C86.5519 18.9424 86.8488 19.0745 87.1073 19.2535C87.3687 19.4324 87.5746 19.6625 87.7252 19.9438C87.8758 20.2222 87.951 20.556 87.951 20.9452V25.36H86.2295V24.4523H86.1783C86.0732 24.6569 85.9326 24.8373 85.7564 24.9935C85.5803 25.1469 85.3687 25.2677 85.1215 25.3557C84.8743 25.441 84.5888 25.4836 84.265 25.4836ZM84.7849 24.2307C85.0519 24.2307 85.2877 24.1782 85.4922 24.0731C85.6968 23.9651 85.8573 23.8202 85.9738 23.6384C86.0903 23.4566 86.1485 23.2506 86.1485 23.0205V22.3259C86.0917 22.3628 86.0135 22.3969 85.9141 22.4282C85.8175 22.4566 85.7082 22.4836 85.586 22.5091C85.4638 22.5319 85.3417 22.5532 85.2195 22.5731C85.0974 22.5901 84.9866 22.6057 84.8871 22.6199C84.6741 22.6512 84.488 22.7009 84.3289 22.7691C84.1698 22.8373 84.0462 22.9296 83.9582 23.0461C83.8701 23.1597 83.826 23.3017 83.826 23.4722C83.826 23.7194 83.9155 23.9083 84.0945 24.039C84.2763 24.1668 84.5064 24.2307 84.7849 24.2307ZM89.0394 25.36V18.8145H90.7695V19.9694H90.8462C90.9826 19.5858 91.2099 19.2833 91.5281 19.0617C91.8462 18.8401 92.2269 18.7293 92.6701 18.7293C93.119 18.7293 93.5011 18.8415 93.8164 19.066C94.1318 19.2875 94.342 19.5887 94.4471 19.9694H94.5153C94.6488 19.5944 94.8903 19.2946 95.2397 19.0702C95.592 18.8429 96.0082 18.7293 96.4883 18.7293C97.0991 18.7293 97.5948 18.9239 97.9755 19.3131C98.359 19.6995 98.5508 20.2478 98.5508 20.958V25.36H96.7397V21.316C96.7397 20.9523 96.6431 20.6796 96.4499 20.4978C96.2568 20.316 96.0153 20.225 95.7255 20.225C95.396 20.225 95.1389 20.3302 94.9542 20.5404C94.7695 20.7478 94.6772 21.0219 94.6772 21.3628V25.36H92.9173V21.2776C92.9173 20.9566 92.8249 20.7009 92.6403 20.5106C92.4585 20.3202 92.2184 20.225 91.9201 20.225C91.7184 20.225 91.5366 20.2762 91.3747 20.3785C91.2156 20.4779 91.0891 20.6185 90.9954 20.8003C90.9016 20.9793 90.8548 21.1895 90.8548 21.431V25.36H89.0394Z" fill="white"/>
</svg>
