<svg width="260" height="41" viewBox="0 0 260 41" fill="none" xmlns="http://www.w3.org/2000/svg">
<rect x="0.5" y="0.859985" width="259" height="40" rx="6" fill="#0077B5"/>
<g clip-path="url(#clip0_6314_8080)">
<path d="M16.7962 26.86H13.9002V17.516H16.7962V26.86ZM15.3402 16.236C15.0415 16.236 14.7615 16.1587 14.5002 16.004C14.2388 15.8493 14.0335 15.644 13.8842 15.388C13.7348 15.132 13.6602 14.8493 13.6602 14.54C13.6602 14.2307 13.7348 13.948 13.8842 13.692C14.0335 13.436 14.2362 13.2333 14.4922 13.084C14.7482 12.9347 15.0308 12.86 15.3402 12.86C15.6495 12.86 15.9322 12.9347 16.1882 13.084C16.4442 13.2333 16.6468 13.436 16.7962 13.692C16.9455 13.948 17.0202 14.2307 17.0202 14.54C17.0202 14.8493 16.9455 15.132 16.7962 15.388C16.6468 15.644 16.4415 15.8493 16.1802 16.004C15.9188 16.1587 15.6388 16.236 15.3402 16.236ZM27.6602 26.86H24.7642V22.316C24.7642 21.8253 24.7428 21.452 24.7002 21.196C24.6362 20.78 24.5028 20.46 24.3002 20.236C24.0655 19.9693 23.7188 19.836 23.2602 19.836C22.5668 19.836 22.0868 20.0813 21.8202 20.572C21.6175 20.9453 21.5162 21.5 21.5162 22.236V26.86H18.6202V17.516H21.4042V18.78H21.4362C21.6495 18.3747 21.9802 18.0333 22.4282 17.756C22.9402 17.436 23.5268 17.276 24.1882 17.276C25.1162 17.276 25.8522 17.4733 26.3962 17.868C26.8762 18.22 27.2122 18.748 27.4042 19.452C27.5748 20.0387 27.6602 20.796 27.6602 21.724V26.86Z" fill="white"/>
</g>
<path d="M45.0398 16.6327V25.36H43.2244V16.6327H45.0398ZM46.174 25.36V18.8145H47.9893V25.36H46.174ZM47.0859 17.9708C46.816 17.9708 46.5845 17.8813 46.3913 17.7023C46.201 17.5205 46.1058 17.3032 46.1058 17.0503C46.1058 16.8003 46.201 16.5858 46.3913 16.4069C46.5845 16.225 46.816 16.1341 47.0859 16.1341C47.3558 16.1341 47.5859 16.225 47.7762 16.4069C47.9694 16.5858 48.066 16.8003 48.066 17.0503C48.066 17.3032 47.9694 17.5205 47.7762 17.7023C47.5859 17.8813 47.3558 17.9708 47.0859 17.9708ZM50.9388 21.5759V25.36H49.1235V18.8145H50.8536V19.9694H50.9303C51.0752 19.5887 51.3181 19.2875 51.659 19.066C51.9999 18.8415 52.4133 18.7293 52.8991 18.7293C53.3536 18.7293 53.7499 18.8287 54.088 19.0276C54.4261 19.2265 54.6888 19.5106 54.8763 19.8799C55.0638 20.2463 55.1576 20.6838 55.1576 21.1924V25.36H53.3422V21.5162C53.3451 21.1157 53.2428 20.8032 53.0354 20.5787C52.828 20.3515 52.5425 20.2378 52.1789 20.2378C51.9346 20.2378 51.7187 20.2904 51.5312 20.3955C51.3465 20.5006 51.2016 20.654 51.0965 20.8557C50.9942 21.0546 50.9417 21.2946 50.9388 21.5759ZM57.9132 23.4765L57.9175 21.2989H58.1817L60.2783 18.8145H62.3621L59.5453 22.1043H59.1149L57.9132 23.4765ZM56.2683 25.36V16.6327H58.0837V25.36H56.2683ZM60.3592 25.36L58.4331 22.5091L59.6433 21.2265L62.4857 25.36H60.3592ZM65.6461 25.4878C64.9728 25.4878 64.3933 25.3515 63.9075 25.0787C63.4245 24.8032 63.0524 24.414 62.791 23.9111C62.5297 23.4054 62.399 22.8074 62.399 22.1171C62.399 21.4438 62.5297 20.8529 62.791 20.3444C63.0524 19.8358 63.4203 19.4395 63.8947 19.1554C64.372 18.8713 64.9316 18.7293 65.5737 18.7293C66.0055 18.7293 66.4075 18.7989 66.7797 18.9381C67.1547 19.0745 67.4814 19.2804 67.7598 19.556C68.041 19.8316 68.2598 20.1782 68.416 20.5958C68.5723 21.0106 68.6504 21.4963 68.6504 22.0532V22.5517H63.1234V21.4267H66.9416C66.9416 21.1654 66.8848 20.9338 66.7711 20.7321C66.6575 20.5304 66.4998 20.3728 66.2981 20.2591C66.0993 20.1427 65.8677 20.0844 65.6035 20.0844C65.328 20.0844 65.0836 20.1483 64.8706 20.2762C64.6603 20.4012 64.4956 20.5702 64.3762 20.7833C64.2569 20.9935 64.1959 21.2279 64.193 21.4864V22.556C64.193 22.8799 64.2527 23.1597 64.372 23.3955C64.4941 23.6313 64.666 23.8131 64.8876 23.941C65.1092 24.0688 65.372 24.1327 65.676 24.1327C65.8777 24.1327 66.0623 24.1043 66.2299 24.0475C66.3976 23.9907 66.541 23.9054 66.6603 23.7918C66.7797 23.6782 66.8706 23.539 66.9331 23.3742L68.612 23.485C68.5268 23.8884 68.3521 24.2407 68.0879 24.5418C67.8265 24.8401 67.4885 25.0731 67.0737 25.2407C66.6618 25.4054 66.1859 25.4878 65.6461 25.4878ZM71.927 25.4665C71.4298 25.4665 70.9795 25.3387 70.5761 25.083C70.1756 24.8245 69.8574 24.4452 69.6216 23.9452C69.3886 23.4424 69.2722 22.8259 69.2722 22.0958C69.2722 21.3458 69.3929 20.7222 69.6344 20.225C69.8759 19.725 70.1969 19.3515 70.5974 19.1043C71.0009 18.8543 71.4426 18.7293 71.9227 18.7293C72.2892 18.7293 72.5946 18.7918 72.8389 18.9168C73.0861 19.039 73.2849 19.1924 73.4355 19.377C73.5889 19.5588 73.7054 19.7378 73.7849 19.914H73.8403V16.6327H75.6514V25.36H73.8616V24.3117H73.7849C73.6997 24.4935 73.579 24.6739 73.4227 24.8529C73.2693 25.029 73.069 25.1753 72.8219 25.2918C72.5776 25.4083 72.2793 25.4665 71.927 25.4665ZM72.5023 24.0219C72.7949 24.0219 73.042 23.9424 73.2437 23.7833C73.4483 23.6213 73.6045 23.3955 73.7125 23.1057C73.8233 22.816 73.8787 22.4765 73.8787 22.0873C73.8787 21.6981 73.8247 21.36 73.7168 21.0731C73.6088 20.7861 73.4526 20.5645 73.248 20.4083C73.0435 20.252 72.7949 20.1739 72.5023 20.1739C72.204 20.1739 71.9526 20.2549 71.748 20.4168C71.5435 20.5787 71.3886 20.8032 71.2835 21.0901C71.1784 21.377 71.1259 21.7094 71.1259 22.0873C71.1259 22.4679 71.1784 22.8046 71.2835 23.0972C71.3915 23.387 71.5463 23.6142 71.748 23.779C71.9526 23.941 72.204 24.0219 72.5023 24.0219ZM76.824 25.36V18.8145H78.6393V25.36H76.824ZM77.7359 17.9708C77.466 17.9708 77.2345 17.8813 77.0413 17.7023C76.851 17.5205 76.7558 17.3032 76.7558 17.0503C76.7558 16.8003 76.851 16.5858 77.0413 16.4069C77.2345 16.225 77.466 16.1341 77.7359 16.1341C78.0058 16.1341 78.2359 16.225 78.4262 16.4069C78.6194 16.5858 78.716 16.8003 78.716 17.0503C78.716 17.3032 78.6194 17.5205 78.4262 17.7023C78.2359 17.8813 78.0058 17.9708 77.7359 17.9708ZM81.5888 21.5759V25.36H79.7735V18.8145H81.5036V19.9694H81.5803C81.7252 19.5887 81.9681 19.2875 82.309 19.066C82.6499 18.8415 83.0633 18.7293 83.5491 18.7293C84.0036 18.7293 84.3999 18.8287 84.738 19.0276C85.076 19.2265 85.3388 19.5106 85.5263 19.8799C85.7138 20.2463 85.8076 20.6838 85.8076 21.1924V25.36H83.9922V21.5162C83.9951 21.1157 83.8928 20.8032 83.6854 20.5787C83.478 20.3515 83.1925 20.2378 82.8289 20.2378C82.5846 20.2378 82.3687 20.2904 82.1812 20.3955C81.9965 20.5006 81.8516 20.654 81.7465 20.8557C81.6442 21.0546 81.5917 21.2946 81.5888 21.5759Z" fill="white"/>
<defs>
<clipPath id="clip0_6314_8080">
<rect width="16" height="16" fill="white" transform="matrix(1 0 0 -1 12.5 28.86)"/>
</clipPath>
</defs>
</svg>
