<svg width="260" height="41" viewBox="0 0 260 41" fill="none" xmlns="http://www.w3.org/2000/svg">
<rect x="0.5" y="0.859985" width="259" height="40" rx="6" fill="#1DA1F2"/>
<g clip-path="url(#clip0_6314_8068)">
<path d="M27.0122 17.596C27.0228 17.692 27.0282 17.836 27.0282 18.028C27.0282 19.1373 26.8255 20.2306 26.4202 21.308C26.0042 22.4386 25.4068 23.4413 24.6282 24.316C23.7962 25.2546 22.8202 25.9853 21.7002 26.508C20.4842 27.0733 19.1508 27.356 17.7002 27.356C16.7828 27.356 15.8975 27.2306 15.0442 26.98C14.1908 26.7293 13.3962 26.364 12.6602 25.884C12.9375 25.916 13.2042 25.932 13.4602 25.932C14.2068 25.932 14.9295 25.8093 15.6282 25.564C16.3268 25.3186 16.9588 24.972 17.5242 24.524C16.8095 24.5133 16.1722 24.2946 15.6122 23.868C15.0522 23.4413 14.6655 22.9026 14.4522 22.252C14.6655 22.284 14.8735 22.3 15.0762 22.3C15.3962 22.3 15.6842 22.2626 15.9402 22.188C15.4388 22.092 14.9908 21.8893 14.5962 21.58C14.2015 21.2706 13.8895 20.8893 13.6602 20.436C13.4308 19.9826 13.3162 19.4946 13.3162 18.972V18.924C13.7535 19.18 14.2442 19.3186 14.7882 19.34C14.3402 19.052 13.9855 18.6653 13.7242 18.18C13.4628 17.6946 13.3322 17.1746 13.3322 16.62C13.3322 16.0226 13.4815 15.468 13.7802 14.956C14.6015 15.9693 15.5882 16.7746 16.7402 17.372C17.9242 17.98 19.1882 18.3213 20.5322 18.396C20.4788 18.1293 20.4522 17.8786 20.4522 17.644C20.4522 17.0466 20.5988 16.4973 20.8922 15.996C21.1855 15.4946 21.5828 15.0973 22.0842 14.804C22.5855 14.5106 23.1348 14.364 23.7322 14.364C24.2015 14.364 24.6442 14.4573 25.0602 14.644C25.4762 14.8306 25.8335 15.084 26.1322 15.404C26.8895 15.2546 27.5828 14.988 28.2122 14.604C28.0948 14.988 27.9108 15.3346 27.6602 15.644C27.4095 15.9533 27.1135 16.2093 26.7722 16.412C27.3802 16.348 28.0095 16.1773 28.6602 15.9C28.2122 16.5613 27.6628 17.1266 27.0122 17.596Z" fill="white"/>
</g>
<path d="M46.706 18.8145V20.1782H42.7642V18.8145H46.706ZM43.6591 17.2463H45.4744V23.3486C45.4744 23.5162 45.5 23.6469 45.5511 23.7407C45.6023 23.8316 45.6733 23.8955 45.7642 23.9324C45.858 23.9694 45.9659 23.9878 46.0881 23.9878C46.1733 23.9878 46.2585 23.9807 46.3438 23.9665C46.429 23.9495 46.4943 23.9367 46.5398 23.9282L46.8253 25.279C46.7344 25.3074 46.6065 25.3401 46.4418 25.377C46.277 25.4168 46.0767 25.441 45.8409 25.4495C45.4034 25.4665 45.0199 25.4083 44.6903 25.2748C44.3636 25.1412 44.1094 24.9338 43.9276 24.6526C43.7457 24.3713 43.6563 24.0162 43.6591 23.5873V17.2463ZM48.8597 25.36L47.0784 18.8145H48.9151L49.9293 23.2123H49.9889L51.0458 18.8145H52.8483L53.9222 23.1867H53.9776L54.9747 18.8145H56.8071L55.0301 25.36H53.1083L51.9833 21.2435H51.9023L50.7773 25.36H48.8597ZM57.4555 25.36V18.8145H59.2709V25.36H57.4555ZM58.3675 17.9708C58.0976 17.9708 57.866 17.8813 57.6729 17.7023C57.4825 17.5205 57.3873 17.3032 57.3873 17.0503C57.3873 16.8003 57.4825 16.5858 57.6729 16.4069C57.866 16.225 58.0976 16.1341 58.3675 16.1341C58.6373 16.1341 58.8675 16.225 59.0578 16.4069C59.251 16.5858 59.3476 16.8003 59.3476 17.0503C59.3476 17.3032 59.251 17.5205 59.0578 17.7023C58.8675 17.8813 58.6373 17.9708 58.3675 17.9708ZM63.8866 18.8145V20.1782H59.9448V18.8145H63.8866ZM60.8397 17.2463H62.6551V23.3486C62.6551 23.5162 62.6806 23.6469 62.7318 23.7407C62.7829 23.8316 62.8539 23.8955 62.9448 23.9324C63.0386 23.9694 63.1465 23.9878 63.2687 23.9878C63.3539 23.9878 63.4391 23.9807 63.5244 23.9665C63.6096 23.9495 63.6749 23.9367 63.7204 23.9282L64.0059 25.279C63.915 25.3074 63.7872 25.3401 63.6224 25.377C63.4576 25.4168 63.2573 25.441 63.0215 25.4495C62.584 25.4665 62.2005 25.4083 61.871 25.2748C61.5443 25.1412 61.29 24.9338 61.1082 24.6526C60.9264 24.3713 60.8369 24.0162 60.8397 23.5873V17.2463ZM68.2307 18.8145V20.1782H64.2889V18.8145H68.2307ZM65.1838 17.2463H66.9991V23.3486C66.9991 23.5162 67.0247 23.6469 67.0758 23.7407C67.127 23.8316 67.198 23.8955 67.2889 23.9324C67.3826 23.9694 67.4906 23.9878 67.6128 23.9878C67.698 23.9878 67.7832 23.9807 67.8684 23.9665C67.9537 23.9495 68.019 23.9367 68.0645 23.9282L68.35 25.279C68.2591 25.3074 68.1312 25.3401 67.9664 25.377C67.8017 25.4168 67.6014 25.441 67.3656 25.4495C66.9281 25.4665 66.5446 25.4083 66.215 25.2748C65.8883 25.1412 65.6341 24.9338 65.4522 24.6526C65.2704 24.3713 65.1809 24.0162 65.1838 23.5873V17.2463ZM72.0058 25.4878C71.3325 25.4878 70.753 25.3515 70.2672 25.0787C69.7842 24.8032 69.4121 24.414 69.1507 23.9111C68.8893 23.4054 68.7587 22.8074 68.7587 22.1171C68.7587 21.4438 68.8893 20.8529 69.1507 20.3444C69.4121 19.8358 69.78 19.4395 70.2544 19.1554C70.7317 18.8713 71.2913 18.7293 71.9334 18.7293C72.3652 18.7293 72.7672 18.7989 73.1393 18.9381C73.5143 19.0745 73.8411 19.2804 74.1195 19.556C74.4007 19.8316 74.6195 20.1782 74.7757 20.5958C74.932 21.0106 75.0101 21.4963 75.0101 22.0532V22.5517H69.4831V21.4267H73.3013C73.3013 21.1654 73.2445 20.9338 73.1308 20.7321C73.0172 20.5304 72.8595 20.3728 72.6578 20.2591C72.4589 20.1427 72.2274 20.0844 71.9632 20.0844C71.6876 20.0844 71.4433 20.1483 71.2303 20.2762C71.02 20.4012 70.8553 20.5702 70.7359 20.7833C70.6166 20.9935 70.5555 21.2279 70.5527 21.4864V22.556C70.5527 22.8799 70.6124 23.1597 70.7317 23.3955C70.8538 23.6313 71.0257 23.8131 71.2473 23.941C71.4689 24.0688 71.7317 24.1327 72.0357 24.1327C72.2374 24.1327 72.422 24.1043 72.5896 24.0475C72.7572 23.9907 72.9007 23.9054 73.02 23.7918C73.1393 23.6782 73.2303 23.539 73.2928 23.3742L74.9717 23.485C74.8865 23.8884 74.7118 24.2407 74.4476 24.5418C74.1862 24.8401 73.8482 25.0731 73.4334 25.2407C73.0214 25.4054 72.5456 25.4878 72.0058 25.4878ZM75.8747 25.36V18.8145H77.6347V19.9566H77.7029C77.8222 19.5503 78.0225 19.2435 78.3037 19.0361C78.585 18.8259 78.9088 18.7208 79.2753 18.7208C79.3662 18.7208 79.4642 18.7265 79.5693 18.7378C79.6745 18.7492 79.7668 18.7648 79.8463 18.7847V20.3955C79.7611 20.3699 79.6432 20.3472 79.4926 20.3273C79.3421 20.3074 79.2043 20.2975 79.0793 20.2975C78.8122 20.2975 78.5736 20.3557 78.3634 20.4722C78.156 20.5858 77.9912 20.7449 77.8691 20.9495C77.7497 21.154 77.6901 21.3898 77.6901 21.6569V25.36H75.8747Z" fill="white"/>
<defs>
<clipPath id="clip0_6314_8068">
<rect width="16" height="16" fill="white" transform="matrix(1 0 0 -1 12.5 28.86)"/>
</clipPath>
</defs>
</svg>
