<svg width="4" height="7" viewBox="0 0 4 7" fill="none" xmlns="http://www.w3.org/2000/svg">
<path d="M3.8616 3.13798L0.861598 0.137984C0.781598 0.0659842 0.689598 0.0299845 0.585598 0.0299845C0.481598 0.0299845 0.389598 0.0659842 0.309598 0.137984C0.229598 0.209984 0.191598 0.299984 0.195598 0.407984C0.199598 0.515985 0.237598 0.609984 0.309598 0.689984L3.0576 3.43798L0.309598 6.18598C0.237598 6.26598 0.201598 6.35998 0.201598 6.46798C0.201598 6.57598 0.237598 6.66598 0.309598 6.73798C0.333598 6.76198 0.369598 6.78398 0.417598 6.80398C0.465598 6.82398 0.513598 6.83398 0.561598 6.83398C0.609598 6.83398 0.657598 6.82398 0.705598 6.80398C0.753598 6.78398 0.789598 6.76198 0.813598 6.73798L3.8136 3.73798C3.9976 3.49798 4.0136 3.29798 3.8616 3.13798Z" fill="#9CA3AF"/>
</svg>
