<svg width="19" height="19" viewBox="0 0 19 19" fill="none" xmlns="http://www.w3.org/2000/svg">
<rect x="0.628906" y="1.3887" width="17" height="17" rx="8.5" transform="rotate(-2.56371 0.628906 1.3887)" fill="#DC2626"/>
<path d="M9.80811 13.1284C9.22395 13.1545 8.71594 13.0292 8.28408 12.7523C7.85449 12.4729 7.51481 12.058 7.26503 11.5075C7.01751 10.9546 6.87601 10.282 6.84054 9.48971C6.80743 8.69731 6.88959 8.01824 7.08702 7.45249C7.28671 6.88428 7.58811 6.44422 7.99123 6.13232C8.39671 5.82031 8.89036 5.65128 9.47216 5.62523C10.054 5.59918 10.5607 5.72341 10.9925 5.99794C11.4242 6.27246 11.7638 6.68382 12.0111 7.23202C12.2607 7.78011 12.4033 8.44912 12.4386 9.23905C12.4742 10.0337 12.3923 10.7175 12.1928 11.2905C11.9956 11.8609 11.6943 12.3033 11.2889 12.6177C10.8859 12.932 10.3923 13.1022 9.80811 13.1284ZM9.7584 12.018C10.2125 11.9976 10.5608 11.7581 10.8033 11.2993C11.0481 10.8381 11.1509 10.1712 11.1118 9.29846C11.086 8.72139 11.004 8.23925 10.8658 7.85205C10.7276 7.46485 10.5441 7.17685 10.3152 6.98803C10.0863 6.79685 9.82161 6.70798 9.52124 6.72143C9.06952 6.74166 8.72245 6.98233 8.48005 7.44344C8.23755 7.90219 8.13449 8.56442 8.17088 9.43014C8.19446 10.0097 8.27422 10.4943 8.41016 10.884C8.54846 11.2735 8.73209 11.5639 8.96104 11.7551C9.18988 11.9439 9.45567 12.0315 9.7584 12.018Z" fill="#FEF2F2"/>
</svg>
